G75*
%MOIN*%
%OFA0B0*%
%FSLAX24Y24*%
%IPPOS*%
%LPD*%
%AMOC8*
5,1,8,0,0,1.08239X$1,22.5*
%
%ADD10C,0.0000*%
%ADD11C,0.0020*%
%ADD12R,0.0175X0.0005*%
%ADD13R,0.0245X0.0005*%
%ADD14R,0.0305X0.0005*%
%ADD15R,0.0340X0.0005*%
%ADD16R,0.0365X0.0005*%
%ADD17R,0.0380X0.0005*%
%ADD18R,0.0390X0.0005*%
%ADD19R,0.0395X0.0005*%
%ADD20R,0.0405X0.0005*%
%ADD21R,0.0410X0.0005*%
%ADD22R,0.0420X0.0005*%
%ADD23R,0.0425X0.0005*%
%ADD24R,0.0435X0.0005*%
%ADD25R,0.0440X0.0005*%
%ADD26R,0.0445X0.0005*%
%ADD27R,0.0450X0.0005*%
%ADD28R,0.0455X0.0005*%
%ADD29R,0.0460X0.0005*%
%ADD30R,0.0470X0.0005*%
%ADD31R,0.0475X0.0005*%
%ADD32R,0.0480X0.0005*%
%ADD33R,0.0485X0.0005*%
%ADD34R,0.0490X0.0005*%
%ADD35R,0.0495X0.0005*%
%ADD36R,0.0500X0.0005*%
%ADD37R,0.0080X0.0005*%
%ADD38R,0.0120X0.0005*%
%ADD39R,0.0505X0.0005*%
%ADD40R,0.0150X0.0005*%
%ADD41R,0.0510X0.0005*%
%ADD42R,0.0170X0.0005*%
%ADD43R,0.0190X0.0005*%
%ADD44R,0.0515X0.0005*%
%ADD45R,0.0200X0.0005*%
%ADD46R,0.0210X0.0005*%
%ADD47R,0.0520X0.0005*%
%ADD48R,0.0220X0.0005*%
%ADD49R,0.0525X0.0005*%
%ADD50R,0.0225X0.0005*%
%ADD51R,0.0535X0.0005*%
%ADD52R,0.0235X0.0005*%
%ADD53R,0.0530X0.0005*%
%ADD54R,0.0240X0.0005*%
%ADD55R,0.0540X0.0005*%
%ADD56R,0.0250X0.0005*%
%ADD57R,0.0545X0.0005*%
%ADD58R,0.0550X0.0005*%
%ADD59R,0.0255X0.0005*%
%ADD60R,0.0260X0.0005*%
%ADD61R,0.0555X0.0005*%
%ADD62R,0.0560X0.0005*%
%ADD63R,0.0565X0.0005*%
%ADD64R,0.0265X0.0005*%
%ADD65R,0.0570X0.0005*%
%ADD66R,0.0575X0.0005*%
%ADD67R,0.0580X0.0005*%
%ADD68R,0.1100X0.0005*%
%ADD69R,0.1095X0.0005*%
%ADD70R,0.1085X0.0005*%
%ADD71R,0.1075X0.0005*%
%ADD72R,0.1070X0.0005*%
%ADD73R,0.1060X0.0005*%
%ADD74R,0.1045X0.0005*%
%ADD75R,0.1025X0.0005*%
%ADD76R,0.1020X0.0005*%
%ADD77R,0.1005X0.0005*%
%ADD78R,0.0985X0.0005*%
%ADD79R,0.0975X0.0005*%
%ADD80R,0.0955X0.0005*%
%ADD81R,0.0945X0.0005*%
%ADD82R,0.0925X0.0005*%
%ADD83R,0.0915X0.0005*%
%ADD84R,0.0900X0.0005*%
%ADD85R,0.0885X0.0005*%
%ADD86R,0.0875X0.0005*%
%ADD87R,0.0860X0.0005*%
%ADD88R,0.0855X0.0005*%
%ADD89R,0.0840X0.0005*%
%ADD90R,0.0835X0.0005*%
%ADD91R,0.0825X0.0005*%
%ADD92R,0.0815X0.0005*%
%ADD93R,0.0810X0.0005*%
%ADD94R,0.0800X0.0005*%
%ADD95R,0.0790X0.0005*%
%ADD96R,0.0785X0.0005*%
%ADD97R,0.0780X0.0005*%
%ADD98R,0.0775X0.0005*%
%ADD99R,0.0770X0.0005*%
%ADD100R,0.0765X0.0005*%
%ADD101R,0.0760X0.0005*%
%ADD102R,0.0015X0.0005*%
%ADD103R,0.0755X0.0005*%
%ADD104R,0.0020X0.0005*%
%ADD105R,0.0030X0.0005*%
%ADD106R,0.0750X0.0005*%
%ADD107R,0.0045X0.0005*%
%ADD108R,0.0060X0.0005*%
%ADD109R,0.0070X0.0005*%
%ADD110R,0.0745X0.0005*%
%ADD111R,0.0100X0.0005*%
%ADD112R,0.0115X0.0005*%
%ADD113R,0.0130X0.0005*%
%ADD114R,0.0740X0.0005*%
%ADD115R,0.0230X0.0005*%
%ADD116R,0.0275X0.0005*%
%ADD117R,0.0295X0.0005*%
%ADD118R,0.0315X0.0005*%
%ADD119R,0.0335X0.0005*%
%ADD120R,0.0355X0.0005*%
%ADD121R,0.0370X0.0005*%
%ADD122R,0.0400X0.0005*%
%ADD123R,0.0415X0.0005*%
%ADD124R,0.0215X0.0005*%
%ADD125R,0.0195X0.0005*%
%ADD126R,0.0185X0.0005*%
%ADD127R,0.0160X0.0005*%
%ADD128R,0.0140X0.0005*%
%ADD129R,0.0005X0.0005*%
%ADD130R,0.0805X0.0005*%
%ADD131R,0.0010X0.0005*%
%ADD132R,0.0025X0.0005*%
%ADD133R,0.0820X0.0005*%
%ADD134R,0.0830X0.0005*%
%ADD135R,0.0035X0.0005*%
%ADD136R,0.0050X0.0005*%
%ADD137R,0.0850X0.0005*%
%ADD138R,0.0055X0.0005*%
%ADD139R,0.0065X0.0005*%
%ADD140R,0.0865X0.0005*%
%ADD141R,0.0075X0.0005*%
%ADD142R,0.0880X0.0005*%
%ADD143R,0.0090X0.0005*%
%ADD144R,0.0890X0.0005*%
%ADD145R,0.0895X0.0005*%
%ADD146R,0.0105X0.0005*%
%ADD147R,0.0905X0.0005*%
%ADD148R,0.0920X0.0005*%
%ADD149R,0.0125X0.0005*%
%ADD150R,0.0930X0.0005*%
%ADD151R,0.0135X0.0005*%
%ADD152R,0.0155X0.0005*%
%ADD153R,0.0960X0.0005*%
%ADD154R,0.0980X0.0005*%
%ADD155R,0.1050X0.0005*%
%ADD156R,0.0270X0.0005*%
%ADD157R,0.1390X0.0005*%
%ADD158R,0.1380X0.0005*%
%ADD159R,0.1375X0.0005*%
%ADD160R,0.1370X0.0005*%
%ADD161R,0.1360X0.0005*%
%ADD162R,0.1350X0.0005*%
%ADD163R,0.1340X0.0005*%
%ADD164R,0.1330X0.0005*%
%ADD165R,0.1320X0.0005*%
%ADD166R,0.1315X0.0005*%
%ADD167R,0.1310X0.0005*%
%ADD168R,0.1305X0.0005*%
%ADD169R,0.1300X0.0005*%
%ADD170R,0.1290X0.0005*%
%ADD171R,0.1285X0.0005*%
%ADD172R,0.1280X0.0005*%
%ADD173R,0.1270X0.0005*%
%ADD174R,0.1260X0.0005*%
%ADD175R,0.1250X0.0005*%
%ADD176R,0.1240X0.0005*%
%ADD177R,0.1230X0.0005*%
%ADD178R,0.1220X0.0005*%
%ADD179R,0.1210X0.0005*%
%ADD180R,0.1205X0.0005*%
%ADD181R,0.1200X0.0005*%
%ADD182R,0.1190X0.0005*%
%ADD183R,0.1180X0.0005*%
%ADD184R,0.1170X0.0005*%
%ADD185R,0.1160X0.0005*%
%ADD186R,0.1150X0.0005*%
%ADD187R,0.1140X0.0005*%
%ADD188R,0.1130X0.0005*%
%ADD189R,0.1120X0.0005*%
%ADD190R,0.1110X0.0005*%
%ADD191R,0.1090X0.0005*%
%ADD192R,0.1080X0.0005*%
%ADD193R,0.1055X0.0005*%
%ADD194R,0.1040X0.0005*%
%ADD195R,0.1030X0.0005*%
%ADD196R,0.1010X0.0005*%
%ADD197R,0.1000X0.0005*%
%ADD198R,0.0995X0.0005*%
%ADD199R,0.0970X0.0005*%
%ADD200R,0.0950X0.0005*%
%ADD201R,0.0935X0.0005*%
%ADD202R,0.0910X0.0005*%
%ADD203R,0.0870X0.0005*%
%ADD204R,0.0720X0.0005*%
%ADD205R,0.0705X0.0005*%
%ADD206R,0.0680X0.0005*%
%ADD207R,0.0670X0.0005*%
%ADD208R,0.0650X0.0005*%
%ADD209R,0.0630X0.0005*%
%ADD210R,0.0600X0.0005*%
%ADD211R,0.0310X0.0005*%
%ADD212R,0.0180X0.0005*%
%ADD213C,0.0050*%
%ADD214C,0.0010*%
%ADD215C,0.0100*%
%ADD216C,0.0080*%
D10*
X000300Y000302D02*
X000302Y000300D01*
X000305Y000300D01*
X000307Y000302D01*
X000305Y000300D01*
X000302Y000300D01*
X000300Y000302D01*
X000300Y000308D01*
X000302Y000310D01*
X000305Y000310D01*
X000307Y000308D01*
X000305Y000310D01*
X000302Y000310D01*
X000300Y000308D01*
X000300Y000302D01*
X000309Y000300D02*
X000309Y000302D01*
X000311Y000302D01*
X000311Y000300D01*
X000309Y000300D01*
X000309Y000302D01*
X000311Y000302D01*
X000311Y000300D01*
X000309Y000300D01*
X000314Y000300D02*
X000320Y000310D01*
X000314Y000300D01*
X000311Y000305D02*
X000309Y000305D01*
X000309Y000307D01*
X000311Y000307D01*
X000311Y000305D01*
X000309Y000305D01*
X000309Y000307D01*
X000311Y000307D01*
X000311Y000305D01*
X000323Y000302D02*
X000325Y000300D01*
X000328Y000300D01*
X000330Y000302D01*
X000330Y000310D01*
X000330Y000302D01*
X000328Y000300D01*
X000325Y000300D01*
X000323Y000302D01*
X000323Y000310D01*
X000323Y000302D01*
X000332Y000300D02*
X000337Y000300D01*
X000339Y000302D01*
X000337Y000303D01*
X000334Y000303D01*
X000332Y000305D01*
X000334Y000307D01*
X000339Y000307D01*
X000334Y000307D01*
X000332Y000305D01*
X000334Y000303D01*
X000337Y000303D01*
X000339Y000302D01*
X000337Y000300D01*
X000332Y000300D01*
X000341Y000302D02*
X000341Y000305D01*
X000343Y000307D01*
X000346Y000307D01*
X000348Y000305D01*
X000348Y000303D01*
X000341Y000303D01*
X000348Y000303D01*
X000348Y000305D01*
X000346Y000307D01*
X000343Y000307D01*
X000341Y000305D01*
X000341Y000302D01*
X000343Y000300D01*
X000346Y000300D01*
X000343Y000300D01*
X000341Y000302D01*
X000351Y000303D02*
X000354Y000307D01*
X000356Y000307D01*
X000354Y000307D01*
X000351Y000303D01*
X000351Y000300D02*
X000351Y000307D01*
X000351Y000300D01*
X000358Y000300D02*
X000363Y000300D01*
X000365Y000302D01*
X000363Y000303D01*
X000360Y000303D01*
X000358Y000305D01*
X000360Y000307D01*
X000365Y000307D01*
X000360Y000307D01*
X000358Y000305D01*
X000360Y000303D01*
X000363Y000303D01*
X000365Y000302D01*
X000363Y000300D01*
X000358Y000300D01*
X000368Y000300D02*
X000374Y000310D01*
X000368Y000300D01*
X000377Y000300D02*
X000382Y000300D01*
X000383Y000302D01*
X000383Y000303D01*
X000382Y000305D01*
X000377Y000305D01*
X000382Y000305D01*
X000383Y000307D01*
X000383Y000308D01*
X000382Y000310D01*
X000377Y000310D01*
X000377Y000300D01*
X000382Y000300D01*
X000383Y000302D01*
X000383Y000303D01*
X000382Y000305D01*
X000383Y000307D01*
X000383Y000308D01*
X000382Y000310D01*
X000377Y000310D01*
X000377Y000300D01*
X000386Y000302D02*
X000386Y000305D01*
X000388Y000307D01*
X000391Y000307D01*
X000393Y000305D01*
X000393Y000303D01*
X000386Y000303D01*
X000393Y000303D01*
X000393Y000305D01*
X000391Y000307D01*
X000388Y000307D01*
X000386Y000305D01*
X000386Y000302D01*
X000388Y000300D01*
X000391Y000300D01*
X000388Y000300D01*
X000386Y000302D01*
X000395Y000300D02*
X000395Y000307D01*
X000400Y000307D01*
X000402Y000305D01*
X000402Y000300D01*
X000402Y000305D01*
X000400Y000307D01*
X000395Y000307D01*
X000395Y000300D01*
X000404Y000300D02*
X000411Y000310D01*
X000404Y000300D01*
X000414Y000300D02*
X000414Y000310D01*
X000420Y000310D01*
X000414Y000310D01*
X000414Y000300D01*
X000414Y000305D02*
X000417Y000305D01*
X000414Y000305D01*
X000423Y000307D02*
X000424Y000307D01*
X000424Y000300D01*
X000424Y000307D01*
X000423Y000307D01*
X000424Y000310D02*
X000424Y000312D01*
X000424Y000310D01*
X000429Y000310D02*
X000431Y000310D01*
X000431Y000300D01*
X000431Y000310D01*
X000429Y000310D01*
X000435Y000305D02*
X000437Y000307D01*
X000440Y000307D01*
X000442Y000305D01*
X000442Y000303D01*
X000435Y000303D01*
X000442Y000303D01*
X000442Y000305D01*
X000440Y000307D01*
X000437Y000307D01*
X000435Y000305D01*
X000435Y000302D01*
X000437Y000300D01*
X000440Y000300D01*
X000437Y000300D01*
X000435Y000302D01*
X000435Y000305D01*
X000432Y000300D02*
X000429Y000300D01*
X000432Y000300D01*
X000426Y000300D02*
X000423Y000300D01*
X000426Y000300D01*
X000444Y000300D02*
X000449Y000300D01*
X000451Y000302D01*
X000449Y000303D01*
X000446Y000303D01*
X000444Y000305D01*
X000446Y000307D01*
X000451Y000307D01*
X000446Y000307D01*
X000444Y000305D01*
X000446Y000303D01*
X000449Y000303D01*
X000451Y000302D01*
X000449Y000300D01*
X000444Y000300D01*
X000453Y000300D02*
X000460Y000310D01*
X000453Y000300D01*
X000463Y000300D02*
X000463Y000310D01*
X000468Y000310D01*
X000469Y000308D01*
X000469Y000305D01*
X000468Y000303D01*
X000463Y000303D01*
X000468Y000303D01*
X000469Y000305D01*
X000469Y000308D01*
X000468Y000310D01*
X000463Y000310D01*
X000463Y000300D01*
X000472Y000300D02*
X000472Y000307D01*
X000472Y000300D01*
X000472Y000303D02*
X000475Y000307D01*
X000477Y000307D01*
X000475Y000307D01*
X000472Y000303D01*
X000480Y000302D02*
X000481Y000300D01*
X000485Y000300D01*
X000486Y000302D01*
X000486Y000305D01*
X000485Y000307D01*
X000481Y000307D01*
X000480Y000305D01*
X000480Y000302D01*
X000481Y000300D01*
X000485Y000300D01*
X000486Y000302D01*
X000486Y000305D01*
X000485Y000307D01*
X000481Y000307D01*
X000480Y000305D01*
X000480Y000302D01*
X000489Y000297D02*
X000490Y000297D01*
X000492Y000298D01*
X000492Y000307D01*
X000492Y000298D01*
X000490Y000297D01*
X000489Y000297D01*
X000495Y000302D02*
X000495Y000305D01*
X000497Y000307D01*
X000500Y000307D01*
X000502Y000305D01*
X000502Y000303D01*
X000495Y000303D01*
X000502Y000303D01*
X000502Y000305D01*
X000500Y000307D01*
X000497Y000307D01*
X000495Y000305D01*
X000495Y000302D01*
X000497Y000300D01*
X000500Y000300D01*
X000497Y000300D01*
X000495Y000302D01*
X000492Y000310D02*
X000492Y000312D01*
X000492Y000310D01*
X000504Y000305D02*
X000504Y000302D01*
X000506Y000300D01*
X000511Y000300D01*
X000506Y000300D01*
X000504Y000302D01*
X000504Y000305D01*
X000506Y000307D01*
X000511Y000307D01*
X000506Y000307D01*
X000504Y000305D01*
X000513Y000307D02*
X000517Y000307D01*
X000513Y000307D01*
X000515Y000308D02*
X000515Y000302D01*
X000517Y000300D01*
X000515Y000302D01*
X000515Y000308D01*
X000519Y000305D02*
X000521Y000307D01*
X000526Y000307D01*
X000521Y000307D01*
X000519Y000305D01*
X000521Y000303D01*
X000524Y000303D01*
X000526Y000302D01*
X000524Y000300D01*
X000519Y000300D01*
X000524Y000300D01*
X000526Y000302D01*
X000524Y000303D01*
X000521Y000303D01*
X000519Y000305D01*
X000529Y000300D02*
X000535Y000310D01*
X000529Y000300D01*
X000538Y000302D02*
X000540Y000300D01*
X000543Y000300D01*
X000545Y000302D01*
X000545Y000308D01*
X000543Y000310D01*
X000540Y000310D01*
X000538Y000308D01*
X000538Y000302D01*
X000540Y000300D01*
X000543Y000300D01*
X000545Y000302D01*
X000545Y000308D01*
X000543Y000310D01*
X000540Y000310D01*
X000538Y000308D01*
X000538Y000302D01*
X000547Y000302D02*
X000549Y000300D01*
X000552Y000300D01*
X000554Y000302D01*
X000554Y000303D01*
X000552Y000305D01*
X000549Y000305D01*
X000547Y000307D01*
X000547Y000308D01*
X000549Y000310D01*
X000552Y000310D01*
X000554Y000308D01*
X000552Y000310D01*
X000549Y000310D01*
X000547Y000308D01*
X000547Y000307D01*
X000549Y000305D01*
X000552Y000305D01*
X000554Y000303D01*
X000554Y000302D01*
X000552Y000300D01*
X000549Y000300D01*
X000547Y000302D01*
X000556Y000302D02*
X000558Y000300D01*
X000561Y000300D01*
X000563Y000302D01*
X000561Y000300D01*
X000558Y000300D01*
X000556Y000302D01*
X000556Y000308D01*
X000558Y000310D01*
X000561Y000310D01*
X000563Y000308D01*
X000561Y000310D01*
X000558Y000310D01*
X000556Y000308D01*
X000556Y000302D01*
X000575Y000302D02*
X000576Y000300D01*
X000580Y000300D01*
X000581Y000302D01*
X000580Y000300D01*
X000576Y000300D01*
X000575Y000302D01*
X000575Y000308D01*
X000576Y000310D01*
X000580Y000310D01*
X000581Y000308D01*
X000580Y000310D01*
X000576Y000310D01*
X000575Y000308D01*
X000575Y000302D01*
X000584Y000300D02*
X000589Y000300D01*
X000591Y000302D01*
X000591Y000308D01*
X000589Y000310D01*
X000584Y000310D01*
X000584Y000300D01*
X000589Y000300D01*
X000591Y000302D01*
X000591Y000308D01*
X000589Y000310D01*
X000584Y000310D01*
X000584Y000300D01*
X000593Y000302D02*
X000595Y000300D01*
X000598Y000300D01*
X000600Y000302D01*
X000600Y000303D01*
X000598Y000305D01*
X000595Y000305D01*
X000593Y000307D01*
X000593Y000308D01*
X000595Y000310D01*
X000598Y000310D01*
X000600Y000308D01*
X000598Y000310D01*
X000595Y000310D01*
X000593Y000308D01*
X000593Y000307D01*
X000595Y000305D01*
X000598Y000305D01*
X000600Y000303D01*
X000600Y000302D01*
X000598Y000300D01*
X000595Y000300D01*
X000593Y000302D01*
X000602Y000300D02*
X000609Y000310D01*
X000602Y000300D01*
X000612Y000302D02*
X000613Y000300D01*
X000617Y000300D01*
X000618Y000302D01*
X000618Y000308D01*
X000617Y000310D01*
X000613Y000310D01*
X000612Y000308D01*
X000612Y000302D01*
X000613Y000300D01*
X000617Y000300D01*
X000618Y000302D01*
X000618Y000308D01*
X000617Y000310D01*
X000613Y000310D01*
X000612Y000308D01*
X000612Y000302D01*
X000621Y000300D02*
X000626Y000300D01*
X000627Y000302D01*
X000627Y000305D01*
X000626Y000307D01*
X000621Y000307D01*
X000621Y000297D01*
X000621Y000307D01*
X000626Y000307D01*
X000627Y000305D01*
X000627Y000302D01*
X000626Y000300D01*
X000621Y000300D01*
X000630Y000302D02*
X000630Y000305D01*
X000632Y000307D01*
X000635Y000307D01*
X000637Y000305D01*
X000637Y000303D01*
X000630Y000303D01*
X000637Y000303D01*
X000637Y000305D01*
X000635Y000307D01*
X000632Y000307D01*
X000630Y000305D01*
X000630Y000302D01*
X000632Y000300D01*
X000635Y000300D01*
X000632Y000300D01*
X000630Y000302D01*
X000639Y000300D02*
X000639Y000307D01*
X000644Y000307D01*
X000646Y000305D01*
X000646Y000300D01*
X000646Y000305D01*
X000644Y000307D01*
X000639Y000307D01*
X000639Y000300D01*
X000648Y000302D02*
X000650Y000300D01*
X000653Y000300D01*
X000655Y000302D01*
X000655Y000303D01*
X000653Y000305D01*
X000650Y000305D01*
X000648Y000307D01*
X000648Y000308D01*
X000650Y000310D01*
X000653Y000310D01*
X000655Y000308D01*
X000653Y000310D01*
X000650Y000310D01*
X000648Y000308D01*
X000648Y000307D01*
X000650Y000305D01*
X000653Y000305D01*
X000655Y000303D01*
X000655Y000302D01*
X000653Y000300D01*
X000650Y000300D01*
X000648Y000302D01*
X000658Y000302D02*
X000659Y000300D01*
X000663Y000300D01*
X000664Y000302D01*
X000664Y000305D01*
X000663Y000307D01*
X000659Y000307D01*
X000658Y000305D01*
X000658Y000302D01*
X000659Y000300D01*
X000663Y000300D01*
X000664Y000302D01*
X000664Y000305D01*
X000663Y000307D01*
X000659Y000307D01*
X000658Y000305D01*
X000658Y000302D01*
X000667Y000302D02*
X000668Y000300D01*
X000673Y000300D01*
X000673Y000307D01*
X000673Y000300D01*
X000668Y000300D01*
X000667Y000302D01*
X000667Y000307D01*
X000667Y000302D01*
X000676Y000303D02*
X000679Y000307D01*
X000681Y000307D01*
X000679Y000307D01*
X000676Y000303D01*
X000676Y000300D02*
X000676Y000307D01*
X000676Y000300D01*
X000684Y000302D02*
X000685Y000300D01*
X000690Y000300D01*
X000685Y000300D01*
X000684Y000302D01*
X000684Y000305D01*
X000685Y000307D01*
X000690Y000307D01*
X000685Y000307D01*
X000684Y000305D01*
X000684Y000302D01*
X000693Y000302D02*
X000693Y000305D01*
X000695Y000307D01*
X000698Y000307D01*
X000700Y000305D01*
X000700Y000303D01*
X000693Y000303D01*
X000700Y000303D01*
X000700Y000305D01*
X000698Y000307D01*
X000695Y000307D01*
X000693Y000305D01*
X000693Y000302D01*
X000695Y000300D01*
X000698Y000300D01*
X000695Y000300D01*
X000693Y000302D01*
X000711Y000300D02*
X000718Y000300D01*
X000711Y000300D01*
X000711Y000310D01*
X000711Y000300D01*
X000720Y000302D02*
X000722Y000300D01*
X000725Y000300D01*
X000727Y000302D01*
X000727Y000305D01*
X000725Y000307D01*
X000722Y000307D01*
X000720Y000305D01*
X000720Y000302D01*
X000722Y000300D01*
X000725Y000300D01*
X000727Y000302D01*
X000727Y000305D01*
X000725Y000307D01*
X000722Y000307D01*
X000720Y000305D01*
X000720Y000302D01*
X000730Y000302D02*
X000731Y000300D01*
X000736Y000300D01*
X000731Y000300D01*
X000730Y000302D01*
X000730Y000305D01*
X000731Y000307D01*
X000736Y000307D01*
X000736Y000298D01*
X000735Y000297D01*
X000733Y000297D01*
X000735Y000297D01*
X000736Y000298D01*
X000736Y000307D01*
X000731Y000307D01*
X000730Y000305D01*
X000730Y000302D01*
X000739Y000302D02*
X000741Y000300D01*
X000744Y000300D01*
X000746Y000302D01*
X000746Y000305D01*
X000744Y000307D01*
X000741Y000307D01*
X000739Y000305D01*
X000739Y000302D01*
X000741Y000300D01*
X000744Y000300D01*
X000746Y000302D01*
X000746Y000305D01*
X000744Y000307D01*
X000741Y000307D01*
X000739Y000305D01*
X000739Y000302D01*
X000748Y000302D02*
X000750Y000302D01*
X000750Y000300D01*
X000748Y000300D01*
X000748Y000302D01*
X000750Y000302D01*
X000750Y000300D01*
X000748Y000300D01*
X000748Y000302D01*
X000753Y000300D02*
X000758Y000300D01*
X000759Y000302D01*
X000759Y000305D01*
X000758Y000307D01*
X000753Y000307D01*
X000758Y000307D01*
X000759Y000305D01*
X000759Y000302D01*
X000758Y000300D01*
X000753Y000300D01*
X000753Y000310D01*
X000753Y000300D01*
X000762Y000300D02*
X000762Y000307D01*
X000764Y000307D01*
X000765Y000305D01*
X000767Y000307D01*
X000769Y000305D01*
X000769Y000300D01*
X000769Y000305D01*
X000767Y000307D01*
X000765Y000305D01*
X000765Y000300D01*
X000765Y000305D01*
X000764Y000307D01*
X000762Y000307D01*
X000762Y000300D01*
X000771Y000300D02*
X000776Y000300D01*
X000778Y000302D01*
X000778Y000305D01*
X000776Y000307D01*
X000771Y000307D01*
X000771Y000297D01*
X000771Y000307D01*
X000776Y000307D01*
X000778Y000305D01*
X000778Y000302D01*
X000776Y000300D01*
X000771Y000300D01*
X000300Y000325D02*
X000300Y007071D01*
X007420Y007071D01*
X007420Y000325D01*
X000300Y000325D01*
D11*
X002353Y003385D02*
X002330Y003408D01*
X002353Y003385D02*
X002400Y003385D01*
X002423Y003408D01*
X002423Y003432D01*
X002400Y003455D01*
X002353Y003455D01*
X002330Y003478D01*
X002330Y003502D01*
X002353Y003525D01*
X002400Y003525D01*
X002423Y003502D01*
X002477Y003478D02*
X002524Y003525D01*
X002524Y003385D01*
X002477Y003385D02*
X002571Y003385D01*
X003447Y005860D02*
X003520Y005860D01*
X003557Y005897D01*
X003631Y005860D02*
X003741Y005860D01*
X003778Y005897D01*
X003778Y006043D01*
X003741Y006080D01*
X003631Y006080D01*
X003631Y005860D01*
X003557Y006043D02*
X003520Y006080D01*
X003447Y006080D01*
X003410Y006043D01*
X003410Y005897D01*
X003447Y005860D01*
X003447Y006220D02*
X003520Y006220D01*
X003557Y006257D01*
X003557Y006403D01*
X003520Y006440D01*
X003447Y006440D01*
X003410Y006403D01*
X003410Y006257D01*
X003447Y006220D01*
X003631Y006330D02*
X003704Y006330D01*
X003778Y006330D02*
X003852Y006330D01*
X003815Y006403D02*
X003815Y006220D01*
X003926Y006220D02*
X003999Y006220D01*
X003962Y006220D02*
X003962Y006367D01*
X003926Y006367D01*
X003962Y006440D02*
X003962Y006477D01*
X003852Y006440D02*
X003815Y006403D01*
X003704Y006440D02*
X003668Y006403D01*
X003668Y006220D01*
X003852Y006043D02*
X003852Y006007D01*
X003889Y005970D01*
X003962Y005970D01*
X003999Y005933D01*
X003999Y005897D01*
X003962Y005860D01*
X003889Y005860D01*
X003852Y005897D01*
X003852Y006043D02*
X003889Y006080D01*
X003962Y006080D01*
X003999Y006043D01*
X004110Y006220D02*
X004220Y006220D01*
X004294Y006257D02*
X004294Y006330D01*
X004331Y006367D01*
X004404Y006367D01*
X004441Y006330D01*
X004441Y006293D01*
X004294Y006293D01*
X004294Y006257D02*
X004331Y006220D01*
X004404Y006220D01*
X004220Y006367D02*
X004110Y006367D01*
X004073Y006330D01*
X004073Y006257D01*
X004110Y006220D01*
X005270Y002640D02*
X005340Y002640D01*
X005364Y002617D01*
X005364Y002523D01*
X005340Y002500D01*
X005270Y002500D01*
X005270Y002640D01*
X005418Y002593D02*
X005464Y002640D01*
X005464Y002500D01*
X005418Y002500D02*
X005511Y002500D01*
D12*
X002400Y005445D03*
X002790Y006145D03*
D13*
X002805Y005675D03*
X002400Y005450D03*
D14*
X002400Y005455D03*
D15*
X002403Y005460D03*
X002403Y006865D03*
D16*
X002395Y005465D03*
D17*
X002383Y005470D03*
X002928Y006045D03*
X002403Y006860D03*
D18*
X002923Y006050D03*
X002368Y005475D03*
X002358Y005480D03*
D19*
X002345Y005485D03*
X002335Y005490D03*
D20*
X002325Y005495D03*
X002315Y005500D03*
X002915Y006060D03*
D21*
X002913Y006065D03*
X002308Y005505D03*
D22*
X002298Y005510D03*
X002288Y005515D03*
X002403Y006855D03*
D23*
X002275Y005525D03*
X002280Y005520D03*
D24*
X002265Y005530D03*
X002260Y005535D03*
D25*
X002253Y005540D03*
X002248Y005545D03*
D26*
X002240Y005550D03*
D27*
X002233Y005555D03*
D28*
X002230Y005560D03*
D29*
X002223Y005565D03*
X002218Y005570D03*
X002213Y005575D03*
X002403Y006850D03*
D30*
X002203Y005585D03*
X002208Y005580D03*
D31*
X002200Y005590D03*
D32*
X002193Y005595D03*
X002403Y006845D03*
D33*
X002185Y005605D03*
X002190Y005600D03*
D34*
X002178Y005610D03*
D35*
X002175Y005615D03*
D36*
X002173Y005620D03*
X002168Y005625D03*
D37*
X002808Y005620D03*
X003058Y005965D03*
X002788Y006165D03*
X003073Y006305D03*
D38*
X002788Y006160D03*
X002808Y005625D03*
D39*
X002165Y005630D03*
D40*
X002808Y005630D03*
X003028Y005985D03*
D41*
X002158Y005640D03*
X002158Y005635D03*
X002403Y006840D03*
D42*
X003018Y006345D03*
X003023Y005990D03*
X002808Y005635D03*
D43*
X002808Y005640D03*
X003013Y005995D03*
X003008Y006350D03*
D44*
X002155Y005645D03*
X002150Y005650D03*
D45*
X002808Y005645D03*
X002793Y006130D03*
D46*
X002793Y006125D03*
X002803Y006075D03*
X003003Y006000D03*
X002808Y005650D03*
D47*
X002148Y005655D03*
D48*
X002808Y005655D03*
X002798Y006090D03*
X002798Y006095D03*
X002798Y006100D03*
X002798Y006105D03*
X002798Y006110D03*
D49*
X002145Y005660D03*
D50*
X002805Y005660D03*
D51*
X002140Y005665D03*
X002135Y005675D03*
D52*
X002805Y005665D03*
D53*
X002138Y005670D03*
X002403Y006835D03*
D54*
X002803Y005670D03*
D55*
X002133Y005680D03*
D56*
X002793Y005740D03*
X002803Y005690D03*
X002803Y005685D03*
X002803Y005680D03*
X002403Y006875D03*
D57*
X002130Y005685D03*
D58*
X002128Y005690D03*
X002128Y005695D03*
X002123Y005700D03*
D59*
X002795Y005730D03*
X002795Y005735D03*
X002800Y005710D03*
X002800Y005695D03*
X002985Y006010D03*
D60*
X002798Y005725D03*
X002798Y005720D03*
X002803Y005705D03*
X002803Y005700D03*
D61*
X002120Y005705D03*
D62*
X002118Y005710D03*
X002403Y006830D03*
D63*
X002115Y005720D03*
X002115Y005715D03*
D64*
X002800Y005715D03*
D65*
X002113Y005725D03*
D66*
X002110Y005730D03*
D67*
X002108Y005735D03*
X002108Y005740D03*
X002403Y006825D03*
D68*
X002403Y006635D03*
X002403Y006630D03*
X002363Y005745D03*
D69*
X002355Y005750D03*
X002350Y005755D03*
D70*
X002345Y005760D03*
D71*
X002335Y005765D03*
D72*
X002328Y005770D03*
X002403Y006650D03*
D73*
X002403Y006655D03*
X002323Y005775D03*
D74*
X002310Y005780D03*
D75*
X002300Y005785D03*
D76*
X002293Y005790D03*
X002403Y006675D03*
D77*
X002210Y006355D03*
X002280Y005795D03*
D78*
X002270Y005800D03*
D79*
X002260Y005805D03*
D80*
X002250Y005810D03*
D81*
X002240Y005815D03*
X002175Y006340D03*
D82*
X002230Y005820D03*
D83*
X002220Y005825D03*
D84*
X002208Y005830D03*
X002403Y006730D03*
D85*
X002200Y005835D03*
D86*
X002190Y005840D03*
X002130Y006305D03*
D87*
X002403Y006745D03*
X002183Y005845D03*
D88*
X002175Y005850D03*
X002120Y006295D03*
D89*
X002108Y006280D03*
X002168Y005855D03*
X002403Y006750D03*
D90*
X002105Y006275D03*
X002165Y005860D03*
D91*
X002155Y005865D03*
X002100Y006265D03*
D92*
X002095Y006255D03*
X002090Y006250D03*
X002150Y005870D03*
D93*
X002143Y005875D03*
X002088Y006245D03*
D94*
X002083Y006230D03*
X002083Y006225D03*
X002133Y005885D03*
X002138Y005880D03*
X002403Y006765D03*
D95*
X002403Y006770D03*
X002078Y006220D03*
X002078Y006215D03*
X002128Y005890D03*
D96*
X002125Y005895D03*
X002075Y006205D03*
X002075Y006210D03*
D97*
X002073Y006200D03*
X002073Y006195D03*
X002118Y005900D03*
D98*
X002115Y005905D03*
X002110Y005910D03*
X002070Y006185D03*
X002070Y006190D03*
D99*
X002068Y006180D03*
X002068Y006175D03*
X002063Y006165D03*
X002108Y005915D03*
X002403Y006775D03*
D100*
X002065Y006170D03*
X002065Y006160D03*
X002100Y005925D03*
X002105Y005920D03*
D101*
X002098Y005930D03*
X002093Y005935D03*
X002063Y006145D03*
X002063Y006150D03*
X002063Y006155D03*
D102*
X003085Y005935D03*
X003115Y006240D03*
D103*
X002060Y006140D03*
X002060Y006135D03*
X002060Y006130D03*
X002060Y006125D03*
X002060Y006120D03*
X002090Y005945D03*
X002090Y005940D03*
D104*
X003083Y005940D03*
X003113Y006245D03*
X003108Y006255D03*
D105*
X003103Y006265D03*
X003078Y005945D03*
D106*
X002403Y006780D03*
X002058Y006115D03*
X002058Y006110D03*
X002058Y006105D03*
X002058Y006100D03*
X002058Y006095D03*
X002058Y006090D03*
X002058Y006085D03*
X002058Y006080D03*
X002058Y006075D03*
X002078Y005975D03*
X002083Y005960D03*
X002083Y005955D03*
X002088Y005950D03*
D107*
X003075Y005950D03*
X003095Y006275D03*
D108*
X003068Y005955D03*
D109*
X003063Y005960D03*
D110*
X002080Y005965D03*
X002080Y005970D03*
X002075Y005980D03*
X002075Y005985D03*
X002070Y005995D03*
X002070Y006000D03*
X002065Y006010D03*
X002065Y006015D03*
X002065Y006020D03*
X002060Y006040D03*
X002060Y006045D03*
X002060Y006050D03*
X002060Y006055D03*
X002060Y006060D03*
X002060Y006065D03*
X002060Y006070D03*
D111*
X003053Y005970D03*
D112*
X003045Y005975D03*
X003050Y006325D03*
D113*
X003038Y005980D03*
D114*
X002403Y006785D03*
X002063Y006035D03*
X002063Y006030D03*
X002063Y006025D03*
X002068Y006005D03*
X002073Y005990D03*
D115*
X002993Y006005D03*
D116*
X002975Y006015D03*
D117*
X002965Y006020D03*
D118*
X002955Y006025D03*
D119*
X002945Y006030D03*
D120*
X002940Y006035D03*
D121*
X002933Y006040D03*
D122*
X002918Y006055D03*
D123*
X002910Y006070D03*
D124*
X002800Y006080D03*
X002800Y006085D03*
X002795Y006115D03*
X002795Y006120D03*
X002990Y006355D03*
D125*
X002790Y006135D03*
D126*
X002790Y006140D03*
D127*
X002788Y006150D03*
D128*
X002788Y006155D03*
D129*
X003120Y006230D03*
D130*
X002085Y006235D03*
X002085Y006240D03*
D131*
X003118Y006235D03*
D132*
X003110Y006250D03*
X003105Y006260D03*
D133*
X002403Y006760D03*
X002098Y006260D03*
D134*
X002103Y006270D03*
X002403Y006755D03*
D135*
X003100Y006270D03*
D136*
X003093Y006280D03*
X003088Y006285D03*
D137*
X002118Y006290D03*
X002113Y006285D03*
D138*
X003085Y006290D03*
D139*
X003080Y006295D03*
D140*
X002125Y006300D03*
D141*
X003075Y006300D03*
D142*
X002403Y006735D03*
X002133Y006310D03*
D143*
X003063Y006315D03*
X003068Y006310D03*
D144*
X002138Y006315D03*
D145*
X002145Y006320D03*
D146*
X003055Y006320D03*
D147*
X002150Y006325D03*
D148*
X002158Y006330D03*
X002403Y006720D03*
D149*
X003045Y006330D03*
D150*
X002168Y006335D03*
D151*
X003035Y006335D03*
D152*
X003030Y006340D03*
D153*
X002403Y006705D03*
X002183Y006345D03*
D154*
X002193Y006350D03*
X002403Y006695D03*
D155*
X002233Y006360D03*
D156*
X002963Y006360D03*
D157*
X002403Y006365D03*
X002403Y006370D03*
D158*
X002403Y006375D03*
X002403Y006380D03*
X002403Y006385D03*
D159*
X002400Y006390D03*
D160*
X002403Y006395D03*
X002403Y006400D03*
D161*
X002403Y006405D03*
X002403Y006410D03*
X002403Y006415D03*
D162*
X002403Y006420D03*
X002403Y006425D03*
D163*
X002403Y006430D03*
X002403Y006435D03*
X002403Y006440D03*
D164*
X002403Y006445D03*
X002403Y006450D03*
D165*
X002403Y006455D03*
X002403Y006460D03*
D166*
X002405Y006465D03*
D167*
X002403Y006470D03*
D168*
X002400Y006475D03*
D169*
X002403Y006480D03*
X002403Y006485D03*
D170*
X002403Y006490D03*
D171*
X002400Y006495D03*
D172*
X002403Y006500D03*
D173*
X002403Y006505D03*
X002403Y006510D03*
D174*
X002403Y006515D03*
X002403Y006520D03*
D175*
X002403Y006525D03*
X002403Y006530D03*
D176*
X002403Y006535D03*
D177*
X002403Y006540D03*
X002403Y006545D03*
D178*
X002403Y006550D03*
X002403Y006555D03*
D179*
X002403Y006560D03*
D180*
X002400Y006565D03*
D181*
X002403Y006570D03*
D182*
X002403Y006575D03*
D183*
X002403Y006580D03*
D184*
X002403Y006585D03*
X002403Y006590D03*
D185*
X002403Y006595D03*
D186*
X002403Y006600D03*
D187*
X002403Y006605D03*
X002403Y006610D03*
D188*
X002403Y006615D03*
D189*
X002403Y006620D03*
D190*
X002403Y006625D03*
D191*
X002403Y006640D03*
D192*
X002403Y006645D03*
D193*
X002400Y006660D03*
D194*
X002403Y006665D03*
D195*
X002403Y006670D03*
D196*
X002403Y006680D03*
D197*
X002403Y006685D03*
D198*
X002400Y006690D03*
D199*
X002403Y006700D03*
D200*
X002403Y006710D03*
D201*
X002405Y006715D03*
D202*
X002403Y006725D03*
D203*
X002403Y006740D03*
D204*
X002403Y006790D03*
D205*
X002400Y006795D03*
D206*
X002403Y006800D03*
D207*
X002403Y006805D03*
D208*
X002403Y006810D03*
D209*
X002403Y006815D03*
D210*
X002403Y006820D03*
D211*
X002403Y006870D03*
D212*
X002403Y006880D03*
D213*
X001485Y006810D02*
X000545Y006810D01*
X000545Y000610D01*
X001485Y000610D01*
X001485Y006810D01*
D214*
X004158Y003840D02*
X004233Y003840D01*
X004258Y003815D01*
X004258Y003765D01*
X004233Y003740D01*
X004158Y003740D01*
X004208Y003740D02*
X004258Y003690D01*
X004305Y003690D02*
X004405Y003690D01*
X004355Y003690D02*
X004355Y003840D01*
X004305Y003790D01*
X004158Y003840D02*
X004158Y003690D01*
X004825Y003725D02*
X004825Y003800D01*
X004850Y003825D01*
X004900Y003825D01*
X004925Y003800D01*
X004925Y003725D01*
X004975Y003725D02*
X004825Y003725D01*
X004925Y003775D02*
X004975Y003825D01*
X004950Y003872D02*
X004975Y003897D01*
X004975Y003947D01*
X004950Y003972D01*
X004925Y003972D01*
X004900Y003947D01*
X004900Y003922D01*
X004900Y003947D02*
X004875Y003972D01*
X004850Y003972D01*
X004825Y003947D01*
X004825Y003897D01*
X004850Y003872D01*
X005880Y003835D02*
X005880Y003760D01*
X006030Y003760D01*
X005980Y003760D02*
X005980Y003835D01*
X005955Y003860D01*
X005905Y003860D01*
X005880Y003835D01*
X005905Y003907D02*
X005880Y003932D01*
X005880Y003982D01*
X005905Y004007D01*
X005930Y004007D01*
X006030Y003907D01*
X006030Y004007D01*
X006030Y003860D02*
X005980Y003810D01*
X006671Y002108D02*
X006593Y002063D01*
X006593Y002064D02*
X006565Y002108D01*
X006534Y002150D01*
X006501Y002190D01*
X006465Y002228D01*
X006426Y002263D01*
X006385Y002295D01*
X006341Y002325D01*
X006296Y002351D01*
X006249Y002374D01*
X006201Y002394D01*
X006151Y002410D01*
X006101Y002423D01*
X006049Y002432D01*
X005997Y002438D01*
X005945Y002440D01*
X005944Y002529D01*
X005945Y002530D01*
X006000Y002528D01*
X006054Y002522D01*
X006109Y002513D01*
X006162Y002500D01*
X006214Y002484D01*
X006266Y002465D01*
X006316Y002442D01*
X006364Y002416D01*
X006411Y002387D01*
X006455Y002355D01*
X006498Y002320D01*
X006538Y002282D01*
X006575Y002242D01*
X006610Y002200D01*
X006642Y002155D01*
X006671Y002109D01*
X006663Y002104D01*
X006635Y002150D01*
X006603Y002194D01*
X006568Y002236D01*
X006531Y002276D01*
X006492Y002313D01*
X006450Y002348D01*
X006406Y002379D01*
X006360Y002408D01*
X006312Y002434D01*
X006262Y002456D01*
X006212Y002476D01*
X006160Y002492D01*
X006107Y002504D01*
X006053Y002513D01*
X005999Y002519D01*
X005945Y002521D01*
X005945Y002512D01*
X005999Y002510D01*
X006052Y002504D01*
X006105Y002495D01*
X006157Y002483D01*
X006209Y002467D01*
X006259Y002448D01*
X006308Y002426D01*
X006355Y002400D01*
X006401Y002372D01*
X006444Y002340D01*
X006486Y002306D01*
X006525Y002270D01*
X006562Y002230D01*
X006596Y002189D01*
X006627Y002145D01*
X006656Y002100D01*
X006648Y002095D01*
X006618Y002143D01*
X006584Y002189D01*
X006548Y002232D01*
X006508Y002273D01*
X006466Y002311D01*
X006422Y002346D01*
X006375Y002378D01*
X006326Y002406D01*
X006275Y002431D01*
X006222Y002453D01*
X006169Y002470D01*
X006114Y002484D01*
X006058Y002494D01*
X006002Y002501D01*
X005945Y002503D01*
X005945Y002494D01*
X006001Y002492D01*
X006057Y002486D01*
X006112Y002476D01*
X006166Y002462D01*
X006219Y002444D01*
X006271Y002423D01*
X006322Y002398D01*
X006370Y002370D01*
X006416Y002339D01*
X006461Y002304D01*
X006502Y002267D01*
X006541Y002226D01*
X006577Y002184D01*
X006610Y002138D01*
X006640Y002091D01*
X006632Y002086D01*
X006603Y002133D01*
X006570Y002178D01*
X006534Y002220D01*
X006496Y002260D01*
X006455Y002297D01*
X006411Y002332D01*
X006365Y002363D01*
X006317Y002390D01*
X006268Y002415D01*
X006216Y002436D01*
X006164Y002453D01*
X006110Y002467D01*
X006055Y002477D01*
X006000Y002483D01*
X005945Y002485D01*
X005945Y002476D01*
X006000Y002474D01*
X006054Y002468D01*
X006108Y002458D01*
X006161Y002444D01*
X006213Y002427D01*
X006264Y002407D01*
X006313Y002382D01*
X006360Y002355D01*
X006406Y002324D01*
X006449Y002291D01*
X006490Y002254D01*
X006528Y002214D01*
X006563Y002172D01*
X006595Y002128D01*
X006624Y002082D01*
X006616Y002077D01*
X006588Y002123D01*
X006556Y002167D01*
X006521Y002208D01*
X006483Y002247D01*
X006443Y002284D01*
X006401Y002317D01*
X006356Y002347D01*
X006309Y002375D01*
X006260Y002398D01*
X006210Y002419D01*
X006159Y002436D01*
X006106Y002449D01*
X006053Y002459D01*
X005999Y002465D01*
X005945Y002467D01*
X005945Y002458D01*
X005998Y002456D01*
X006052Y002450D01*
X006104Y002440D01*
X006156Y002427D01*
X006207Y002410D01*
X006257Y002390D01*
X006305Y002367D01*
X006351Y002340D01*
X006395Y002310D01*
X006437Y002277D01*
X006477Y002241D01*
X006514Y002202D01*
X006549Y002161D01*
X006580Y002118D01*
X006609Y002073D01*
X006601Y002068D01*
X006573Y002113D01*
X006542Y002156D01*
X006508Y002196D01*
X006471Y002234D01*
X006432Y002270D01*
X006390Y002302D01*
X006346Y002332D01*
X006300Y002359D01*
X006253Y002382D01*
X006204Y002402D01*
X006154Y002419D01*
X006102Y002432D01*
X006050Y002441D01*
X005998Y002447D01*
X005945Y002449D01*
X005945Y000841D02*
X005945Y000931D01*
X005945Y000930D02*
X005999Y000932D01*
X006052Y000938D01*
X006105Y000948D01*
X006157Y000962D01*
X006208Y000979D01*
X006257Y001000D01*
X006305Y001024D01*
X006351Y001052D01*
X006395Y001083D01*
X006437Y001117D01*
X006476Y001153D01*
X006513Y001193D01*
X006546Y001235D01*
X006577Y001279D01*
X006604Y001325D01*
X006683Y001283D01*
X006655Y001234D01*
X006623Y001188D01*
X006588Y001143D01*
X006551Y001101D01*
X006510Y001061D01*
X006467Y001025D01*
X006422Y000991D01*
X006375Y000960D01*
X006325Y000933D01*
X006274Y000909D01*
X006222Y000888D01*
X006168Y000871D01*
X006113Y000858D01*
X006058Y000848D01*
X006001Y000842D01*
X005945Y000840D01*
X005945Y000849D01*
X006001Y000851D01*
X006056Y000857D01*
X006111Y000867D01*
X006166Y000880D01*
X006219Y000897D01*
X006271Y000917D01*
X006321Y000941D01*
X006370Y000968D01*
X006417Y000998D01*
X006462Y001032D01*
X006504Y001068D01*
X006544Y001107D01*
X006581Y001149D01*
X006616Y001193D01*
X006647Y001239D01*
X006675Y001287D01*
X006667Y001291D01*
X006639Y001244D01*
X006608Y001198D01*
X006574Y001155D01*
X006538Y001113D01*
X006498Y001075D01*
X006456Y001039D01*
X006412Y001006D01*
X006366Y000976D01*
X006317Y000949D01*
X006267Y000926D01*
X006216Y000905D01*
X006163Y000889D01*
X006110Y000876D01*
X006055Y000866D01*
X006000Y000860D01*
X005945Y000858D01*
X005945Y000867D01*
X006000Y000869D01*
X006054Y000875D01*
X006108Y000884D01*
X006161Y000897D01*
X006213Y000914D01*
X006264Y000934D01*
X006313Y000957D01*
X006361Y000984D01*
X006407Y001013D01*
X006451Y001046D01*
X006492Y001081D01*
X006531Y001120D01*
X006568Y001160D01*
X006601Y001203D01*
X006632Y001249D01*
X006659Y001296D01*
X006651Y001300D01*
X006624Y001253D01*
X006594Y001209D01*
X006561Y001166D01*
X006525Y001126D01*
X006486Y001088D01*
X006445Y001053D01*
X006402Y001021D01*
X006356Y000991D01*
X006309Y000965D01*
X006260Y000942D01*
X006210Y000922D01*
X006158Y000906D01*
X006106Y000893D01*
X006053Y000884D01*
X005999Y000878D01*
X005945Y000876D01*
X005945Y000885D01*
X005998Y000887D01*
X006051Y000893D01*
X006104Y000902D01*
X006156Y000915D01*
X006207Y000931D01*
X006257Y000950D01*
X006305Y000973D01*
X006352Y000999D01*
X006396Y001028D01*
X006439Y001060D01*
X006480Y001095D01*
X006518Y001132D01*
X006554Y001172D01*
X006587Y001214D01*
X006617Y001258D01*
X006644Y001304D01*
X006636Y001308D01*
X006609Y001263D01*
X006579Y001219D01*
X006547Y001178D01*
X006512Y001138D01*
X006474Y001101D01*
X006434Y001067D01*
X006391Y001035D01*
X006347Y001007D01*
X006301Y000981D01*
X006253Y000959D01*
X006204Y000939D01*
X006154Y000923D01*
X006102Y000911D01*
X006050Y000902D01*
X005998Y000896D01*
X005945Y000894D01*
X005945Y000903D01*
X006001Y000905D01*
X006056Y000912D01*
X006111Y000922D01*
X006165Y000936D01*
X006217Y000954D01*
X006269Y000975D01*
X006318Y001001D01*
X006366Y001029D01*
X006412Y001061D01*
X006455Y001096D01*
X006495Y001134D01*
X006533Y001175D01*
X006568Y001219D01*
X006599Y001265D01*
X006628Y001313D01*
X006620Y001317D01*
X006592Y001269D01*
X006561Y001224D01*
X006526Y001181D01*
X006489Y001141D01*
X006449Y001103D01*
X006406Y001068D01*
X006361Y001037D01*
X006314Y001008D01*
X006265Y000984D01*
X006214Y000962D01*
X006162Y000945D01*
X006109Y000931D01*
X006055Y000921D01*
X006000Y000914D01*
X005945Y000912D01*
X005945Y000921D01*
X005999Y000923D01*
X006053Y000929D01*
X006107Y000939D01*
X006159Y000953D01*
X006211Y000971D01*
X006261Y000992D01*
X006310Y001016D01*
X006356Y001044D01*
X006401Y001076D01*
X006443Y001110D01*
X006482Y001147D01*
X006519Y001187D01*
X006553Y001229D01*
X006584Y001274D01*
X006612Y001321D01*
X005295Y001141D02*
X005364Y001198D01*
X005363Y001198D02*
X005400Y001158D01*
X005439Y001120D01*
X005481Y001086D01*
X005525Y001054D01*
X005571Y001026D01*
X005620Y001001D01*
X005670Y000980D01*
X005721Y000962D01*
X005774Y000949D01*
X005827Y000939D01*
X005881Y000932D01*
X005935Y000930D01*
X005936Y000841D01*
X005935Y000840D01*
X005879Y000842D01*
X005823Y000848D01*
X005768Y000858D01*
X005713Y000871D01*
X005660Y000888D01*
X005607Y000908D01*
X005556Y000932D01*
X005507Y000959D01*
X005460Y000990D01*
X005415Y001023D01*
X005372Y001059D01*
X005332Y001098D01*
X005294Y001140D01*
X005301Y001146D01*
X005338Y001105D01*
X005378Y001066D01*
X005420Y001030D01*
X005465Y000997D01*
X005512Y000967D01*
X005560Y000940D01*
X005611Y000917D01*
X005663Y000896D01*
X005716Y000880D01*
X005770Y000867D01*
X005824Y000857D01*
X005879Y000851D01*
X005935Y000849D01*
X005935Y000858D01*
X005880Y000860D01*
X005825Y000866D01*
X005771Y000875D01*
X005718Y000888D01*
X005666Y000905D01*
X005614Y000925D01*
X005565Y000948D01*
X005516Y000975D01*
X005470Y001004D01*
X005426Y001037D01*
X005384Y001073D01*
X005345Y001111D01*
X005308Y001152D01*
X005315Y001157D01*
X005351Y001117D01*
X005390Y001079D01*
X005432Y001044D01*
X005475Y001012D01*
X005521Y000982D01*
X005569Y000956D01*
X005618Y000933D01*
X005668Y000913D01*
X005720Y000897D01*
X005773Y000884D01*
X005827Y000875D01*
X005881Y000869D01*
X005935Y000867D01*
X005935Y000876D01*
X005881Y000878D01*
X005828Y000884D01*
X005775Y000893D01*
X005723Y000906D01*
X005671Y000922D01*
X005621Y000941D01*
X005573Y000964D01*
X005526Y000990D01*
X005480Y001019D01*
X005437Y001051D01*
X005396Y001086D01*
X005358Y001123D01*
X005322Y001163D01*
X005329Y001169D01*
X005364Y001130D01*
X005402Y001093D01*
X005443Y001058D01*
X005486Y001027D01*
X005530Y000998D01*
X005577Y000972D01*
X005625Y000950D01*
X005674Y000930D01*
X005725Y000914D01*
X005777Y000902D01*
X005829Y000893D01*
X005882Y000887D01*
X005935Y000885D01*
X005935Y000894D01*
X005883Y000896D01*
X005830Y000902D01*
X005779Y000911D01*
X005728Y000923D01*
X005677Y000939D01*
X005628Y000958D01*
X005581Y000980D01*
X005535Y001006D01*
X005491Y001034D01*
X005449Y001065D01*
X005408Y001099D01*
X005371Y001136D01*
X005336Y001175D01*
X005342Y001181D01*
X005377Y001142D01*
X005415Y001106D01*
X005454Y001072D01*
X005496Y001041D01*
X005540Y001013D01*
X005585Y000988D01*
X005632Y000966D01*
X005680Y000947D01*
X005730Y000932D01*
X005780Y000919D01*
X005832Y000911D01*
X005883Y000905D01*
X005935Y000903D01*
X005935Y000912D01*
X005884Y000914D01*
X005833Y000919D01*
X005782Y000928D01*
X005732Y000940D01*
X005683Y000956D01*
X005636Y000974D01*
X005589Y000996D01*
X005544Y001021D01*
X005501Y001049D01*
X005460Y001079D01*
X005421Y001112D01*
X005384Y001148D01*
X005349Y001186D01*
X005356Y001192D01*
X005393Y001151D01*
X005433Y001113D01*
X005475Y001079D01*
X005520Y001047D01*
X005567Y001018D01*
X005616Y000993D01*
X005667Y000972D01*
X005718Y000954D01*
X005772Y000940D01*
X005826Y000930D01*
X005880Y000923D01*
X005935Y000921D01*
X005936Y002529D02*
X005936Y002439D01*
X005935Y002440D02*
X005881Y002438D01*
X005828Y002432D01*
X005775Y002422D01*
X005723Y002408D01*
X005672Y002391D01*
X005622Y002370D01*
X005574Y002346D01*
X005528Y002318D01*
X005484Y002287D01*
X005443Y002253D01*
X005403Y002216D01*
X005367Y002177D01*
X005299Y002234D01*
X005298Y002235D01*
X005336Y002276D01*
X005376Y002314D01*
X005419Y002350D01*
X005464Y002383D01*
X005511Y002413D01*
X005559Y002439D01*
X005610Y002463D01*
X005662Y002483D01*
X005715Y002499D01*
X005769Y002513D01*
X005824Y002522D01*
X005879Y002528D01*
X005935Y002530D01*
X005935Y002521D01*
X005880Y002519D01*
X005825Y002513D01*
X005771Y002504D01*
X005717Y002491D01*
X005665Y002474D01*
X005613Y002455D01*
X005563Y002431D01*
X005515Y002405D01*
X005469Y002375D01*
X005424Y002343D01*
X005382Y002308D01*
X005342Y002269D01*
X005305Y002229D01*
X005312Y002223D01*
X005349Y002263D01*
X005388Y002301D01*
X005430Y002336D01*
X005474Y002368D01*
X005520Y002397D01*
X005568Y002423D01*
X005617Y002446D01*
X005668Y002466D01*
X005720Y002482D01*
X005773Y002495D01*
X005826Y002504D01*
X005881Y002510D01*
X005935Y002512D01*
X005935Y002503D01*
X005881Y002501D01*
X005828Y002495D01*
X005775Y002486D01*
X005722Y002473D01*
X005671Y002457D01*
X005620Y002438D01*
X005572Y002415D01*
X005524Y002390D01*
X005479Y002361D01*
X005435Y002329D01*
X005394Y002294D01*
X005355Y002257D01*
X005319Y002217D01*
X005326Y002211D01*
X005362Y002251D01*
X005400Y002288D01*
X005441Y002322D01*
X005484Y002353D01*
X005529Y002382D01*
X005576Y002407D01*
X005624Y002430D01*
X005674Y002449D01*
X005725Y002465D01*
X005776Y002477D01*
X005829Y002486D01*
X005882Y002492D01*
X005935Y002494D01*
X005935Y002485D01*
X005882Y002483D01*
X005830Y002477D01*
X005778Y002468D01*
X005727Y002456D01*
X005677Y002440D01*
X005627Y002421D01*
X005580Y002399D01*
X005533Y002374D01*
X005489Y002346D01*
X005447Y002315D01*
X005406Y002281D01*
X005368Y002244D01*
X005333Y002206D01*
X005339Y002200D01*
X005375Y002238D01*
X005412Y002274D01*
X005452Y002308D01*
X005494Y002338D01*
X005538Y002366D01*
X005584Y002391D01*
X005631Y002413D01*
X005680Y002432D01*
X005729Y002447D01*
X005780Y002460D01*
X005831Y002468D01*
X005883Y002474D01*
X005935Y002476D01*
X005935Y002467D01*
X005879Y002465D01*
X005824Y002458D01*
X005769Y002448D01*
X005715Y002434D01*
X005662Y002416D01*
X005611Y002394D01*
X005561Y002369D01*
X005513Y002340D01*
X005468Y002308D01*
X005425Y002273D01*
X005384Y002235D01*
X005346Y002194D01*
X005353Y002188D01*
X005390Y002229D01*
X005431Y002266D01*
X005473Y002301D01*
X005518Y002333D01*
X005566Y002361D01*
X005615Y002386D01*
X005666Y002408D01*
X005718Y002425D01*
X005771Y002439D01*
X005825Y002449D01*
X005880Y002456D01*
X005935Y002458D01*
X005935Y002449D01*
X005881Y002447D01*
X005827Y002441D01*
X005773Y002431D01*
X005720Y002417D01*
X005669Y002399D01*
X005619Y002378D01*
X005570Y002353D01*
X005523Y002325D01*
X005479Y002294D01*
X005437Y002260D01*
X005397Y002222D01*
X005360Y002182D01*
D215*
X005320Y002195D02*
X005320Y002015D01*
X005320Y001375D02*
X005320Y001175D01*
D216*
X004520Y001675D02*
X004520Y002468D01*
X004170Y003275D02*
X002470Y003275D01*
X002931Y003688D02*
X003719Y003688D01*
X003763Y003693D01*
X003807Y003702D01*
X003851Y003713D01*
X003893Y003729D01*
X003934Y003747D01*
X003973Y003769D01*
X004010Y003793D01*
X004046Y003821D01*
X004079Y003851D01*
X004109Y003884D01*
X004137Y003919D01*
X004162Y003956D01*
X004184Y003995D01*
X004203Y004036D01*
X004218Y004078D01*
X004230Y004121D01*
X004230Y004829D02*
X004218Y004872D01*
X004203Y004914D01*
X004184Y004955D01*
X004162Y004994D01*
X004137Y005031D01*
X004109Y005066D01*
X004079Y005099D01*
X004046Y005129D01*
X004010Y005157D01*
X003973Y005181D01*
X003934Y005203D01*
X003893Y005221D01*
X003851Y005237D01*
X003807Y005248D01*
X003763Y005257D01*
X003719Y005262D01*
X002931Y005262D01*
X002887Y005257D01*
X002843Y005248D01*
X002799Y005237D01*
X002757Y005221D01*
X002716Y005203D01*
X002677Y005181D01*
X002640Y005157D01*
X002604Y005129D01*
X002571Y005099D01*
X002541Y005066D01*
X002513Y005031D01*
X002488Y004994D01*
X002466Y004955D01*
X002447Y004914D01*
X002432Y004872D01*
X002420Y004829D01*
X002420Y004121D02*
X002432Y004078D01*
X002447Y004036D01*
X002466Y003995D01*
X002488Y003956D01*
X002513Y003919D01*
X002541Y003884D01*
X002571Y003851D01*
X002604Y003821D01*
X002640Y003793D01*
X002677Y003769D01*
X002716Y003747D01*
X002757Y003729D01*
X002799Y003713D01*
X002843Y003702D01*
X002887Y003693D01*
X002931Y003688D01*
X002120Y002480D02*
X002120Y001675D01*
X002470Y000875D02*
X004170Y000875D01*
X002620Y002075D02*
X002622Y002127D01*
X002628Y002179D01*
X002638Y002231D01*
X002651Y002281D01*
X002668Y002331D01*
X002689Y002379D01*
X002714Y002425D01*
X002742Y002469D01*
X002773Y002511D01*
X002807Y002551D01*
X002844Y002588D01*
X002884Y002622D01*
X002926Y002653D01*
X002970Y002681D01*
X003016Y002706D01*
X003064Y002727D01*
X003114Y002744D01*
X003164Y002757D01*
X003216Y002767D01*
X003268Y002773D01*
X003320Y002775D01*
X003372Y002773D01*
X003424Y002767D01*
X003476Y002757D01*
X003526Y002744D01*
X003576Y002727D01*
X003624Y002706D01*
X003670Y002681D01*
X003714Y002653D01*
X003756Y002622D01*
X003796Y002588D01*
X003833Y002551D01*
X003867Y002511D01*
X003898Y002469D01*
X003926Y002425D01*
X003951Y002379D01*
X003972Y002331D01*
X003989Y002281D01*
X004002Y002231D01*
X004012Y002179D01*
X004018Y002127D01*
X004020Y002075D01*
X004018Y002023D01*
X004012Y001971D01*
X004002Y001919D01*
X003989Y001869D01*
X003972Y001819D01*
X003951Y001771D01*
X003926Y001725D01*
X003898Y001681D01*
X003867Y001639D01*
X003833Y001599D01*
X003796Y001562D01*
X003756Y001528D01*
X003714Y001497D01*
X003670Y001469D01*
X003624Y001444D01*
X003576Y001423D01*
X003526Y001406D01*
X003476Y001393D01*
X003424Y001383D01*
X003372Y001377D01*
X003320Y001375D01*
X003268Y001377D01*
X003216Y001383D01*
X003164Y001393D01*
X003114Y001406D01*
X003064Y001423D01*
X003016Y001444D01*
X002970Y001469D01*
X002926Y001497D01*
X002884Y001528D01*
X002844Y001562D01*
X002807Y001599D01*
X002773Y001639D01*
X002742Y001681D01*
X002714Y001725D01*
X002689Y001771D01*
X002668Y001819D01*
X002651Y001869D01*
X002638Y001919D01*
X002628Y001971D01*
X002622Y002023D01*
X002620Y002075D01*
X005180Y003720D02*
X005480Y003720D01*
X005480Y003620D01*
X005480Y003720D02*
X005780Y003720D01*
X005780Y005720D01*
X005480Y005720D01*
X005480Y005820D01*
X005480Y005720D02*
X005180Y005720D01*
X005180Y003720D01*
X006140Y003720D02*
X006440Y003720D01*
X006440Y003620D01*
X006440Y003720D02*
X006740Y003720D01*
X006740Y005720D01*
X006440Y005720D01*
X006440Y005820D01*
X006440Y005720D02*
X006140Y005720D01*
X006140Y003720D01*
M02*
